<svg xmlns="http://www.w3.org/2000/svg" width="1100" height="560" viewBox="0 0 1100 560" role="img" aria-labelledby="title desc">
  <title id="title">wh-cli setup flow</title>
  <desc id="desc">Terminal screenshot showing wh-cli setup, QR pairing and connected status.</desc>
  <rect width="1100" height="560" fill="#0d1117"/>
  <rect x="32" y="28" width="1036" height="504" rx="10" fill="#111827" stroke="#30363d"/>
  <circle cx="62" cy="58" r="7" fill="#ff5f56"/>
  <circle cx="86" cy="58" r="7" fill="#ffbd2e"/>
  <circle cx="110" cy="58" r="7" fill="#27c93f"/>
  <text x="44" y="104" fill="#7dd3fc" font-family="Consolas, Menlo, monospace" font-size="24">PS C:\Users\you&gt; wh-cli setup</text>
  <text x="44" y="150" fill="#e5e7eb" font-family="Consolas, Menlo, monospace" font-size="22">Starting local daemon on 127.0.0.1:7777</text>
  <text x="44" y="186" fill="#e5e7eb" font-family="Consolas, Menlo, monospace" font-size="22">Scan this QR with WhatsApp &gt; Linked devices:</text>
  <rect x="48" y="220" width="190" height="190" fill="#f8fafc"/>
  <rect x="68" y="240" width="38" height="38" fill="#111827"/>
  <rect x="118" y="240" width="18" height="18" fill="#111827"/>
  <rect x="164" y="240" width="54" height="18" fill="#111827"/>
  <rect x="68" y="290" width="18" height="58" fill="#111827"/>
  <rect x="96" y="318" width="40" height="18" fill="#111827"/>
  <rect x="154" y="288" width="18" height="18" fill="#111827"/>
  <rect x="196" y="288" width="22" height="60" fill="#111827"/>
  <rect x="68" y="368" width="58" height="22" fill="#111827"/>
  <rect x="146" y="360" width="18" height="50" fill="#111827"/>
  <rect x="184" y="374" width="34" height="18" fill="#111827"/>
  <text x="44" y="456" fill="#22c55e" font-family="Consolas, Menlo, monospace" font-size="22">WhatsApp session connected.</text>
  <text x="44" y="492" fill="#e5e7eb" font-family="Consolas, Menlo, monospace" font-size="22">Try: wh-cli chats</text>
  <text x="392" y="260" fill="#cbd5e1" font-family="Inter, Arial, sans-serif" font-size="24">One command starts the daemon,</text>
  <text x="392" y="296" fill="#cbd5e1" font-family="Inter, Arial, sans-serif" font-size="24">authenticates the CLI and guides</text>
  <text x="392" y="332" fill="#cbd5e1" font-family="Inter, Arial, sans-serif" font-size="24">the WhatsApp QR pairing flow.</text>
</svg>
